<svg width="209" height="105" viewBox="0 0 209 105" fill="none" xmlns="http://www.w3.org/2000/svg">
<path d="M208.145 7.18735C208.145 5.28111 207.317 3.45295 205.844 2.10504C204.37 0.757133 202.371 -0.000106812 200.287 -0.000106812C198.202 -0.000106812 196.203 0.757133 194.729 2.10504C193.256 3.45295 192.428 5.28111 192.428 7.18735C192.428 22.8243 187.358 38.1102 177.859 51.1119C168.36 64.1137 154.859 74.2473 139.062 80.2313C123.266 86.2152 105.884 87.7808 89.1146 84.73C72.3453 81.6793 56.9419 74.1491 44.8521 63.0919L26.8328 46.6122L70.7303 46.6122C72.8146 46.6122 74.8136 45.8549 76.2874 44.507C77.7612 43.1591 78.5892 41.331 78.5892 39.4247C78.5892 37.5185 77.7612 35.6903 76.2874 34.3424C74.8136 32.9945 72.8146 32.2373 70.7303 32.2373L7.85888 32.2373C7.80019 32.2373 7.74346 32.2443 7.68506 32.2452C7.486 32.2491 7.28694 32.2553 7.0886 32.2728C6.95153 32.2851 6.81818 32.3079 6.68333 32.3263C6.56485 32.3426 6.4459 32.3549 6.32814 32.3759C6.18471 32.4018 6.04543 32.4373 5.90495 32.4702C5.79689 32.4957 5.68814 32.5172 5.58117 32.5466C5.44794 32.5834 5.31927 32.6286 5.1892 32.6721C5.07696 32.7089 4.96388 32.7427 4.85323 32.7844C4.73565 32.8291 4.62288 32.8813 4.50824 32.9309C4.38975 32.9818 4.27032 33.03 4.15417 33.0866C4.04901 33.1384 3.94906 33.1972 3.84677 33.2529C3.72835 33.3174 3.60867 33.3788 3.4933 33.449C3.38819 33.5135 3.28957 33.5854 3.18812 33.6543C3.08325 33.7254 2.97611 33.7925 2.8743 33.8688C2.73195 33.9758 2.59825 34.0916 2.46459 34.2075C2.41105 34.2536 2.35391 34.2944 2.30145 34.3422C2.24604 34.3931 2.19904 34.4479 2.14562 34.5001C2.02252 34.6194 1.89883 34.7383 1.78484 34.8651C1.69532 34.9647 1.61665 35.0691 1.53392 35.1722C1.46472 35.2577 1.39181 35.3411 1.32676 35.4297C1.24341 35.5433 1.17062 35.6613 1.09513 35.7784C1.04034 35.8631 0.981936 35.9456 0.930843 36.0329C0.862913 36.1487 0.804993 36.268 0.744499 36.3865C0.696048 36.4812 0.64419 36.5742 0.600091 36.6707C0.548655 36.7848 0.506766 36.9006 0.461892 37.0164C0.420515 37.1226 0.375846 37.227 0.339872 37.3354C0.301501 37.4512 0.27314 37.5687 0.241301 37.6859C0.211202 37.7964 0.177142 37.9052 0.15274 38.0175C0.123181 38.154 0.105135 38.2913 0.084211 38.4286C0.0697604 38.5238 0.0496718 38.6168 0.0392981 38.7133C0.0135208 38.9515 -0.000213609 39.1906 2.51199e-06 39.4292L2.51199e-06 96.9244C2.51199e-06 98.8306 0.827994 100.659 2.30183 102.007C3.77566 103.355 5.77461 104.112 7.85893 104.112C9.94325 104.112 11.9422 103.355 13.416 102.007C14.8899 100.659 15.7179 98.8306 15.7179 96.9244L15.7179 56.7774L33.7372 73.2572C48.0254 86.3245 66.2296 95.2235 86.0479 98.8288C105.866 102.434 126.408 100.584 145.077 93.5117C163.745 86.4396 179.701 74.4636 190.927 59.098C202.153 43.7324 208.145 25.6674 208.145 7.18735Z" fill="#003D84"/>
</svg>
