<svg width="435" height="435" viewBox="0 0 435 435" fill="none" xmlns="http://www.w3.org/2000/svg">
<path d="M336.454 120.833L316.954 123.231C318.355 115.098 318.489 106.797 317.35 98.6236C313.522 67.4956 285.087 45.2877 253.959 49.1156C227.798 52.3326 213.27 78.383 205.176 105.623C191.058 82.5552 169.59 59.4905 141.059 62.999C109.931 66.8269 87.7231 95.2625 91.551 126.391C92.733 136.003 94.985 143.798 97.8968 150.169L78.3975 152.567C60.6077 154.754 47.9195 171.001 50.1072 188.79L54.0739 221.047C56.2615 238.837 72.5078 251.525 90.2976 249.338L104.181 362.237C106.369 380.027 122.615 392.715 140.405 390.528L333.947 366.727C351.737 364.54 364.425 348.293 362.237 330.504L348.354 217.604C366.143 215.416 378.832 199.17 376.644 181.38L372.677 149.123C370.49 131.334 354.243 118.645 336.454 120.833ZM257.925 81.3726C271.264 79.7323 283.453 89.252 285.093 102.59C288.068 126.783 277.972 128.025 271.94 128.766L231.973 133.681C237.089 107.249 246.232 82.8105 257.925 81.3726ZM123.808 122.424C122.168 109.086 131.687 96.8963 145.026 95.256C159.348 93.4948 175.695 116.453 186.426 139.282L142.912 144.633C136.879 145.375 126.783 146.617 123.808 122.424ZM82.3642 184.824L195.264 170.94L199.23 203.197L86.3309 217.081L82.3642 184.824ZM136.438 358.271L122.555 245.371L203.197 235.454L217.081 348.354L136.438 358.271ZM329.98 334.47L249.338 344.387L235.454 231.488L316.097 221.571L329.98 334.47ZM231.487 199.231L227.689 168.344L227.795 166.94L340.42 153.09L344.403 185.345L231.487 199.231Z" fill="#DDEAF4"/>
</svg>
