<svg width="390" height="390" viewBox="0 0 390 390" fill="none" xmlns="http://www.w3.org/2000/svg">
<path d="M195 97.5C178.052 97.5215 161.804 104.264 149.82 116.248C137.836 128.232 131.094 144.479 131.073 161.428H163.573C163.573 144.089 177.678 130 195 130C212.323 130 226.428 144.089 226.428 161.428C226.428 171.145 218.611 178.198 206.668 187.85C202.766 190.907 199.018 194.155 195.439 197.584C179.221 213.785 178.75 230.994 178.75 232.911V243.75H211.25L211.234 233.464C211.25 233.204 211.77 227.191 218.4 220.578C220.838 218.14 223.909 215.703 227.094 213.135C239.753 202.881 258.911 187.395 258.911 161.428C258.898 144.48 252.161 128.229 240.179 116.244C228.196 104.258 211.948 97.5172 195 97.5ZM178.75 260H211.25V292.5H178.75V260Z" fill="#DDEAF4"/>
<path d="M195 32.5C105.397 32.5 32.5 105.397 32.5 195C32.5 284.602 105.397 357.5 195 357.5C284.602 357.5 357.5 284.602 357.5 195C357.5 105.397 284.602 32.5 195 32.5ZM195 325C123.321 325 65 266.679 65 195C65 123.321 123.321 65 195 65C266.679 65 325 123.321 325 195C325 266.679 266.679 325 195 325Z" fill="#DDEAF4"/>
</svg>
