<svg width="390" height="390" viewBox="0 0 390 390" fill="none" xmlns="http://www.w3.org/2000/svg">
<path d="M154.375 178.75C167.837 178.75 178.75 167.837 178.75 154.375C178.75 140.913 167.837 130 154.375 130C140.913 130 130 140.913 130 154.375C130 167.837 140.913 178.75 154.375 178.75Z" fill="#DDEAF4"/>
<path d="M235.625 178.75C249.087 178.75 260 167.837 260 154.375C260 140.913 249.087 130 235.625 130C222.163 130 211.25 140.913 211.25 154.375C211.25 167.837 222.163 178.75 235.625 178.75Z" fill="#DDEAF4"/>
<path d="M195 32.5C105.398 32.5 32.5 90.8213 32.5 162.5C32.5 209.755 63.3263 252.119 113.75 275.178V357.5L200.525 292.435C287.576 290.095 357.5 232.7 357.5 162.5C357.5 90.8213 284.602 32.5 195 32.5ZM195 260H189.589L146.25 292.5V253.224L135.834 249.21C92.1538 232.391 65 199.16 65 162.5C65 108.729 123.321 65 195 65C266.679 65 325 108.729 325 162.5C325 216.271 266.679 260 195 260Z" fill="#DDEAF4"/>
</svg>
