<svg width="390" height="390" viewBox="0 0 390 390" fill="none" xmlns="http://www.w3.org/2000/svg">
<path d="M341.169 112.125C340.899 109.394 339.94 106.777 338.382 104.517C336.825 102.258 334.72 100.43 332.264 99.2064L202.264 34.2064C200.006 33.0767 197.516 32.4885 194.992 32.4885C192.467 32.4885 189.977 33.0767 187.72 34.2064L57.7199 99.2064C55.2706 100.437 53.1717 102.267 51.6178 104.525C50.064 106.784 49.1055 109.398 48.8311 112.125C48.6524 113.864 33.2149 287.089 188.402 356.103C190.476 357.038 192.725 357.522 195 357.522C197.275 357.522 199.524 357.038 201.597 356.103C356.785 287.089 341.347 113.88 341.169 112.125ZM195 323.326C85.0036 270.156 79.8036 156.683 80.6974 124.069L195 66.9177L309.221 124.036C309.822 156.358 303.891 270.579 195 323.326Z" fill="#DDEAF4"/>
<path d="M178.75 204.522L141.489 167.261L118.511 190.239L178.75 250.477L271.489 157.739L248.511 134.761L178.75 204.522Z" fill="#DDEAF4"/>
</svg>
