<svg width="457" height="457" viewBox="0 0 457 457" fill="none" xmlns="http://www.w3.org/2000/svg">
<g clip-path="url(#clip0_44_17)">
<path d="M328.344 60.2069L89.0295 106.498C62.6411 111.602 45.3205 137.23 50.4248 163.619L87.4574 355.07C92.5617 381.458 118.19 398.779 144.578 393.675L383.892 347.384C401.49 343.98 413.033 326.901 409.629 309.303L366.424 85.9434C363.02 68.3458 345.941 56.803 328.344 60.2069ZM138.406 361.766C129.599 363.469 121.066 357.689 119.366 348.898L82.3334 157.446C80.633 148.656 86.3948 140.11 95.2016 138.406L334.516 92.1155L343.774 139.978L248.048 158.495C230.451 161.898 218.908 178.978 222.312 196.575L234.656 260.392C238.06 277.99 255.139 289.533 272.737 286.129L368.478 267.609L377.736 315.472L138.406 361.766ZM349.946 171.887L362.29 235.704L266.564 254.22L254.22 190.403L349.946 171.887Z" fill="#DDEAF4"/>
</g>
<defs>
<clipPath id="clip0_44_17">
<rect width="390" height="390" fill="white" transform="translate(0 74.0651) rotate(-10.9476)"/>
</clipPath>
</defs>
</svg>
